<svg xmlns="http://www.w3.org/2000/svg" width="19" height="25" viewBox="0 0 19 25" fill="none">
  <path d="M9.5 0C6.19652 0 3.51852 2.71827 3.51852 6.07143C3.51852 9.42459 6.19652 12.1429 9.5 12.1429C12.8035 12.1429 15.4815 9.42459 15.4815 6.07143C15.4815 2.71827 12.8035 0 9.5 0Z" fill="#A898F6"/>
  <path d="M13.0299 14.844C10.6914 14.4652 8.30858 14.4652 5.97013 14.844L5.71947 14.8846C2.4245 15.4183 0 18.3032 0 21.69C0 23.5181 1.45996 25 3.26092 25H15.7391C17.54 25 19 23.5181 19 21.69C19 18.3032 16.5755 15.4183 13.2805 14.8846L13.0299 14.844Z" fill="#A898F6"/>
</svg>