<svg xmlns="http://www.w3.org/2000/svg" width="38" height="38" viewBox="0 0 38 38" fill="none">
  <rect width="38" height="38" rx="10" fill="#6C6CC9"/>
  <path fill-rule="evenodd" clip-rule="evenodd" d="M14.2572 18.9036C13.9449 18.6314 13.9125 18.1576 14.1847 17.8454L18.1847 13.2571C18.3271 13.0938 18.5333 13 18.75 13C18.9668 13 19.1729 13.0938 19.3153 13.2571L23.3153 17.8454C23.5875 18.1576 23.5551 18.6314 23.2429 18.9036C22.9306 19.1758 22.4569 19.1433 22.1847 18.8311L19.5 15.7516L19.5 24.75C19.5 25.1642 19.1642 25.5 18.75 25.5C18.3358 25.5 18 25.1642 18 24.75L18 15.7516L15.3153 18.8311C15.0431 19.1433 14.5694 19.1758 14.2572 18.9036Z" fill="white"/>
</svg>