<svg xmlns="http://www.w3.org/2000/svg" width="27" height="26" viewBox="0 0 27 26" fill="none">
  <path d="M4.55969 21.8977C4.84036 21.8977 5.06847 21.6716 5.06847 21.3925V12.6816C5.06847 12.4039 4.84041 12.1765 4.55969 12.1765H2.61883C2.33634 12.1765 2.11011 12.4039 2.11011 12.6816V21.3925C2.11011 21.6716 2.33629 21.8977 2.61883 21.8977H4.55969Z" fill="#5ACCF9"/>
  <path d="M25.2034 22.7458H0.830435C0.553068 22.7458 0.323486 22.9721 0.323486 23.2518V24.5647C0.323486 24.8452 0.553068 25.0709 0.830435 25.0709H25.2033C25.484 25.0709 25.7089 24.8453 25.7089 24.5647V23.2518C25.709 22.9721 25.4841 22.7458 25.2034 22.7458Z" fill="#5ACCF9"/>
  <path d="M10.8481 21.8977C11.1259 21.8977 11.3537 21.6716 11.3537 21.3925V12.6816C11.3537 12.4039 11.1259 12.1765 10.8481 12.1765H8.90231C8.62474 12.1765 8.39856 12.4039 8.39856 12.6816V21.3925C8.39856 21.6716 8.62474 21.8977 8.90231 21.8977H10.8481Z" fill="#5ACCF9"/>
  <path d="M23.4182 21.8977C23.696 21.8977 23.9251 21.6716 23.9251 21.3925V12.6816C23.9251 12.4039 23.6959 12.1765 23.4182 12.1765H21.4721C21.1933 12.1765 20.9672 12.4039 20.9672 12.6816V21.3925C20.9672 21.6716 21.1934 21.8977 21.4721 21.8977H23.4182Z" fill="#5ACCF9"/>
  <path d="M25.3565 9.32874L14.9675 0.735019C13.8938 -0.150931 12.14 -0.150931 11.0663 0.735019L0.679359 9.32874C-0.395933 10.2189 -0.132328 10.9427 1.26116 10.9427H24.7755C26.1676 10.9427 26.4298 10.2189 25.3565 9.32874ZM13.017 8.85194C11.9275 8.85194 11.0445 7.96746 11.0445 6.87912C11.0445 5.79057 11.9275 4.90929 13.017 4.90929C14.1091 4.90929 14.9896 5.79057 14.9896 6.87912C14.9896 7.96746 14.1091 8.85194 13.017 8.85194Z" fill="#5ACCF9"/>
  <path d="M17.1317 21.8977C17.4125 21.8977 17.6387 21.6716 17.6387 21.3925V12.6816C17.6387 12.4039 17.4125 12.1765 17.1317 12.1765H15.1891C14.9079 12.1765 14.6816 12.4039 14.6816 12.6816V21.3925C14.6816 21.6716 14.9079 21.8977 15.1891 21.8977H17.1317Z" fill="#5ACCF9"/>
</svg>