<svg xmlns="http://www.w3.org/2000/svg" width="63" height="63" viewBox="0 0 63 63" fill="none">
  <rect width="63" height="63" rx="10" fill="#202244"/>
  <path fill-rule="evenodd" clip-rule="evenodd" d="M26.1817 18C26.7325 18 27.1789 18.4673 27.1789 19.0437V19.3825C27.2439 19.3652 27.3092 19.3485 27.3746 19.3324C30.0881 18.6662 32.9119 18.6662 35.6254 19.3324C35.6908 19.3485 35.7561 19.3652 35.8211 19.3825V19.0437C35.8211 18.4673 36.2675 18 36.8183 18C37.369 18 37.8154 18.4673 37.8154 19.0437V20.1435C40.6583 21.581 42.7832 24.2988 43.5226 27.5984C44.1591 30.4385 44.1591 33.3943 43.5226 36.2344C42.6035 40.3358 39.5439 43.5383 35.6253 44.5004C32.9119 45.1665 30.0881 45.1665 27.3747 44.5004C23.4561 43.5383 20.3965 40.3358 19.4774 36.2344C18.8409 33.3943 18.8409 30.4385 19.4774 27.5984C20.2168 24.2988 22.3417 21.581 25.1846 20.1435V19.0437C25.1846 18.4673 25.631 18 26.1817 18ZM30.0697 28.3319C30.3813 28.0058 30.3813 27.4771 30.0697 27.1511C29.7582 26.825 29.2531 26.825 28.9416 27.1511L26.8465 29.3439L26.0811 28.5427C25.7695 28.2166 25.2644 28.2166 24.9529 28.5427C24.6413 28.8688 24.6413 29.3975 24.9529 29.7235L26.2824 31.1152C26.594 31.4413 27.0991 31.4413 27.4106 31.1152L30.0697 28.3319ZM32.8296 28.994C32.389 28.994 32.0318 29.3678 32.0318 29.8289C32.0318 30.2901 32.389 30.6639 32.8296 30.6639H37.483C37.9236 30.6639 38.2808 30.2901 38.2808 29.8289C38.2808 29.3678 37.9236 28.994 37.483 28.994H32.8296ZM30.0697 35.2901C30.3813 34.964 30.3813 34.4353 30.0697 34.1093C29.7582 33.7832 29.2531 33.7832 28.9416 34.1093L26.8465 36.3021L26.0811 35.5009C25.7695 35.1748 25.2644 35.1748 24.9529 35.5009C24.6413 35.827 24.6413 36.3557 24.9529 36.6817L26.2824 38.0734C26.594 38.3995 27.0991 38.3995 27.4106 38.0734L30.0697 35.2901ZM32.8296 35.9521C32.389 35.9521 32.0318 36.326 32.0318 36.7871C32.0318 37.2483 32.389 37.6221 32.8296 37.6221H37.483C37.9236 37.6221 38.2808 37.2483 38.2808 36.7871C38.2808 36.326 37.9236 35.9521 37.483 35.9521H32.8296Z" fill="#5ACCF9"/>
</svg>