<svg width="63" height="63" viewBox="0 0 63 63" fill="none" xmlns="http://www.w3.org/2000/svg">
<g id="Group 328">
<rect id="Rectangle 1050" width="63" height="63" rx="10" fill="#202244"/>
<g id="Vector">
<path d="M29.6617 28.0101H30.0418V30.2054L29.4021 29.9853C29.0617 29.8682 28.7634 29.5039 28.7634 29.0196C28.7634 28.3862 29.2424 28.0101 29.6617 28.0101Z" fill="#A898F6"/>
<path d="M31.959 34.9898V32.7947L32.5981 33.0145C32.9384 33.1316 33.2368 33.4959 33.2368 33.9803C33.2368 34.6137 32.7578 34.9898 32.3384 34.9898H31.959Z" fill="#A898F6"/>
<path fill-rule="evenodd" clip-rule="evenodd" d="M26.2145 18.4955C29.3666 17.8348 32.6334 17.8349 35.7855 18.4955L36.4449 18.6336C40.8472 19.5562 44.3179 22.757 45.4048 26.8968C46.1984 29.9197 46.1984 33.0803 45.4048 36.1032C44.3179 40.243 40.8472 43.4438 36.4449 44.3664L35.7855 44.5046C32.6334 45.1652 29.3666 45.1652 26.2145 44.5046L25.5551 44.3664C21.1528 43.4438 17.6821 40.243 16.5952 36.1032C15.8016 33.0803 15.8016 29.9197 16.5952 26.8968C17.6821 22.757 21.1528 19.5562 25.5551 18.6336L26.2145 18.4955ZM31.959 25.4546C31.959 24.9538 31.5298 24.5478 31.0004 24.5478C30.471 24.5478 30.0418 24.9538 30.0418 25.4546V26.1965H29.6617C28.03 26.1965 26.8462 27.5363 26.8462 29.0196C26.8462 30.1849 27.5708 31.2852 28.7469 31.6897L30.0418 32.1352V34.9898H29.935C29.3647 34.9898 28.7634 34.4874 28.7634 33.6982C28.7634 33.1974 28.3342 32.7914 27.8048 32.7914C27.2754 32.7914 26.8462 33.1974 26.8462 33.6982C26.8462 35.3373 28.1523 36.8034 29.935 36.8034H30.0418V37.5454C30.0418 38.0462 30.471 38.4522 31.0004 38.4522C31.5298 38.4522 31.959 38.0462 31.959 37.5454V36.8034H32.3384C33.9702 36.8034 35.1539 35.4635 35.1539 33.9803C35.1539 32.815 34.4293 31.7147 33.2532 31.3101L31.959 30.8649V28.0101H32.0652C32.6354 28.0101 33.2368 28.5124 33.2368 29.3016C33.2368 29.8024 33.6659 30.2084 34.1953 30.2084C34.7247 30.2084 35.1539 29.8024 35.1539 29.3016C35.1539 27.6626 33.8478 26.1965 32.0652 26.1965H31.959V25.4546Z" fill="#A898F6"/>
</g>
</g>
</svg>
