<svg xmlns="http://www.w3.org/2000/svg" width="31" height="24" viewBox="0 0 31 24" fill="none">
  <path d="M25.8101 19.5469C25.812 19.5636 25.8131 19.5804 25.8133 19.5972C25.8215 20.5169 24.7351 21.6219 22.9823 22.4784C21.5622 23.1726 19.1113 24 15.5001 24C11.889 24 9.43811 23.1726 8.018 22.4784C6.26515 21.6218 5.17873 20.5167 5.18688 19.5972C5.18711 19.5804 5.1882 19.5636 5.19013 19.5469L5.94002 12.7187C5.94827 12.6435 5.97398 12.5713 6.01505 12.5081C6.05611 12.4448 6.11136 12.3923 6.17631 12.3547C6.24125 12.3171 6.31405 12.2956 6.38878 12.2919C6.4635 12.2882 6.53803 12.3024 6.60631 12.3333L14.612 15.9633C14.8914 16.0898 15.1941 16.1552 15.5002 16.1552C15.8063 16.1552 16.1089 16.0898 16.3883 15.9633L24.3937 12.3334C24.462 12.3025 24.5365 12.2883 24.6112 12.292C24.6859 12.2957 24.7587 12.3172 24.8237 12.3548C24.8886 12.3923 24.9439 12.4449 24.985 12.5081C25.026 12.5714 25.0517 12.6436 25.06 12.7188L25.8101 19.5469ZM30.3586 6.52654L16.3882 0.191894C16.1088 0.0653916 15.8061 0 15.5 0C15.1939 0 14.8913 0.0653916 14.6119 0.191894L0.64151 6.52654C0.450432 6.61318 0.288206 6.75388 0.174383 6.93167C0.0605608 7.10945 0 7.31674 0 7.52855C0 7.74036 0.0605608 7.94765 0.174383 8.12544C0.288206 8.30322 0.450432 8.44392 0.64151 8.53057L14.6119 14.8652C14.8913 14.9917 15.1939 15.0571 15.5 15.0571C15.8061 15.0571 16.1088 14.9917 16.3882 14.8652L27.9846 9.60697V13.7162C27.8196 13.8124 27.6826 13.9508 27.5873 14.1176C27.492 14.2844 27.4418 14.4736 27.4418 14.6662V21.8038H29.613V14.6662C29.613 14.4736 29.5628 14.2844 29.4675 14.1176C29.3722 13.9508 29.2352 13.8124 29.0702 13.7162V9.11468L30.3585 8.53057C30.5496 8.44392 30.7118 8.30322 30.8256 8.12544C30.9394 7.94765 31 7.74036 31 7.52855C31 7.31674 30.9394 7.10945 30.8256 6.93167C30.7118 6.75388 30.5496 6.61318 30.3585 6.52654H30.3586Z" fill="#A898F6"/>
</svg>