<svg xmlns="http://www.w3.org/2000/svg" width="17" height="24" viewBox="0 0 17 24" fill="none">
  <path d="M11.9685 11.9685H11.8488C11.5729 10.6168 10.8385 9.40198 9.76977 8.52959C8.70109 7.65719 7.3638 7.18082 5.98425 7.1811C4.87506 7.17712 3.78757 7.48843 2.8485 8.07874C3.41061 6.42275 4.47684 4.98417 5.89771 3.96466C7.31858 2.94516 9.02286 2.39583 10.7717 2.3937H11.9685V0H10.7717C7.91483 0 5.17502 1.13487 3.15494 3.15494C1.13487 5.17502 0 7.91483 0 10.7717V23.937H11.9685V21.5433C13.2382 21.5433 14.4559 21.0389 15.3537 20.1411C16.2515 19.2433 16.7559 18.0256 16.7559 16.7559C16.7559 15.4862 16.2515 14.2685 15.3537 13.3707C14.4559 12.4729 13.2382 11.9685 11.9685 11.9685ZM11.9685 19.1496V14.3622C12.6034 14.3622 13.2122 14.6144 13.6611 15.0633C14.11 15.5122 14.3622 16.1211 14.3622 16.7559C14.3622 17.3908 14.11 17.9996 13.6611 18.4485C13.2122 18.8974 12.6034 19.1496 11.9685 19.1496Z" fill="#A898F6"/>
</svg>