<svg xmlns="http://www.w3.org/2000/svg" width="24" height="25" viewBox="0 0 24 25" fill="none">
  <path fill-rule="evenodd" clip-rule="evenodd" d="M8.03966 0.47736C10.6445 -0.15912 13.3555 -0.15912 15.9603 0.477359C19.7221 1.39652 22.6593 4.45613 23.5417 8.37465C24.1528 11.0881 24.1528 13.9119 23.5417 16.6253C22.6593 20.5439 19.7221 23.6035 15.9603 24.5226C13.3555 25.1591 10.6445 25.1591 8.03967 24.5226C4.27789 23.6035 1.34066 20.5439 0.458266 16.6254C-0.152755 13.9119 -0.152755 11.0881 0.458266 8.37465C1.34066 4.45613 4.27789 1.39652 8.03966 0.47736ZM12.7658 8.51131C12.7658 8.07073 12.4229 7.71357 12 7.71357C11.577 7.71357 11.2341 8.07073 11.2341 8.51131L11.2341 15.1591C11.2341 15.5997 11.577 15.9569 12 15.9569C12.4229 15.9569 12.7658 15.5997 12.7658 15.1591V8.51131ZM8.93665 11.1704C8.93665 10.7299 8.59378 10.3727 8.17082 10.3727C7.74787 10.3727 7.40499 10.7299 7.40499 11.1704V16.4887C7.40499 16.9293 7.74787 17.2864 8.17082 17.2864C8.59378 17.2864 8.93665 16.9293 8.93665 16.4887V11.1704ZM16.5949 12.5C16.5949 12.0594 16.2521 11.7023 15.8291 11.7023C15.4062 11.7023 15.0633 12.0594 15.0633 12.5V16.4887C15.0633 16.9293 15.4062 17.2864 15.8291 17.2864C16.2521 17.2864 16.5949 16.9293 16.5949 16.4887V12.5Z" fill="#A898F6"/>
</svg>