<svg xmlns="http://www.w3.org/2000/svg" width="24" height="25" viewBox="0 0 24 25" fill="none">
  <path d="M23.7296 12.1974C24.0901 11.8194 24.0901 11.2066 23.7296 10.8286L16.0886 2.81696C15.3067 1.99708 14.6547 1.31338 14.0675 0.843619C13.4476 0.347779 12.7928 0 12 0C11.2072 0 10.5524 0.34778 9.93254 0.843621C9.34532 1.31339 8.6933 1.99707 7.91139 2.81696L0.270363 10.8286C-0.090121 11.2066 -0.090121 11.8194 0.270363 12.1974C0.630847 12.5753 1.21531 12.5753 1.57579 12.1974L2.1046 11.6429V15.8794C2.1046 20.0379 4.83458 23.6495 8.69594 24.5991C10.8691 25.1336 13.1308 25.1336 15.304 24.5991C19.1654 23.6495 21.8954 20.0379 21.8954 15.8794V11.6429L22.4242 12.1974C22.7847 12.5753 23.3692 12.5753 23.7296 12.1974Z" fill="#A898F6"/>
</svg>