<svg xmlns="http://www.w3.org/2000/svg" width="23" height="25" viewBox="0 0 23 25" fill="none">
  <path d="M7.66785 19.7498C7.66753 19.7497 7.66716 19.7496 7.6669 19.7495C7.6451 19.7422 7.6215 19.7352 7.59627 19.7283C6.80342 19.5092 4.39577 19.4025 3.49771 19.4783C3.12945 19.5094 2.89197 19.5877 2.79163 19.7113C2.65223 19.9627 2.72069 21.5598 2.75748 22.419C2.78145 22.978 2.80214 23.4607 2.79037 23.7237C2.77833 24.016 2.85508 24.213 2.89979 24.2369C2.89984 24.2367 2.90374 24.237 2.91161 24.2358C3.51154 24.1368 4.19598 23.7338 4.92064 23.307C5.63464 22.8866 6.37302 22.4518 7.10676 22.2691C7.27023 22.2284 7.41248 22.2117 7.53795 22.1969C7.77975 22.1684 7.86336 22.152 7.9277 22.0652C7.92796 22.0648 7.92828 22.0644 7.9286 22.0641C8.06578 21.8734 8.22133 20.5676 8.20914 20.0861C8.20613 20.0039 8.20338 19.9242 7.66785 19.7498ZM4.38231 21.7495C4.16273 21.8375 3.91291 21.7272 3.82502 21.5076C3.73471 21.2835 3.84503 21.0337 4.06914 20.9434C4.28872 20.8555 4.53849 20.9658 4.6288 21.1899C4.71669 21.4095 4.6088 21.6638 4.38231 21.7495Z" fill="#A898F6"/>
  <path d="M3.7181 18.9706C3.73842 18.9698 3.75927 18.969 3.78054 18.9683C3.79923 18.9678 3.81791 18.9672 3.83723 18.9667C3.8584 18.9661 3.88025 18.9656 3.90226 18.9652C3.9229 18.9648 3.94343 18.9643 3.9647 18.964C3.98687 18.9637 4.00983 18.9634 4.03263 18.9631C4.05491 18.9629 4.07687 18.9626 4.09977 18.9624C4.1231 18.9622 4.14728 18.9622 4.17124 18.9621C4.19193 18.9621 4.21183 18.9618 4.23289 18.9618C4.2368 18.9618 4.24081 18.9618 4.24472 18.9619C4.24524 18.9619 4.24582 18.9619 4.24635 18.9619C4.28932 18.9619 4.33329 18.9621 4.37789 18.9624C4.38327 18.9625 4.38855 18.9625 4.39399 18.9625C4.48546 18.9633 4.5801 18.9645 4.67706 18.9665C4.68234 18.9666 4.68762 18.9667 4.69295 18.9668C4.79081 18.9688 4.89089 18.9714 4.9926 18.9746C4.99746 18.9747 5.00226 18.9749 5.00712 18.975C5.10941 18.9783 5.21318 18.9822 5.3178 18.9868C5.3225 18.9869 5.32725 18.9871 5.33194 18.9874C5.43682 18.992 5.54244 18.9972 5.64801 19.0029C5.6525 19.0032 5.65698 19.0034 5.66147 19.0037C5.76725 19.0096 5.87292 19.0161 5.97769 19.0232C5.98202 19.0235 5.98635 19.0238 5.99068 19.0241C6.04066 19.0275 6.09044 19.0311 6.13995 19.0348C6.14243 19.035 6.14496 19.0352 6.14744 19.0354C6.19943 19.0393 6.25106 19.0433 6.30226 19.0476C6.30563 19.0478 6.30901 19.0481 6.31244 19.0484C6.36021 19.0524 6.40756 19.0565 6.45448 19.0608C6.45897 19.0612 6.46351 19.0616 6.46805 19.062C6.51772 19.0665 6.56686 19.0712 6.61542 19.076C6.6179 19.0763 6.62038 19.0765 6.62286 19.0768C6.6681 19.0813 6.7127 19.086 6.75677 19.0908C6.76263 19.0915 6.76854 19.0921 6.7744 19.0928C6.82101 19.098 6.86698 19.1032 6.91211 19.1087C6.91327 19.1088 6.91444 19.109 6.91565 19.1091C6.9583 19.1143 7.00005 19.1196 7.04112 19.1251C7.04782 19.126 7.05458 19.1268 7.06128 19.1278C7.14531 19.1391 7.22565 19.151 7.30192 19.1635C7.30894 19.1646 7.31596 19.1657 7.32293 19.1669C7.38806 19.1778 7.4505 19.189 7.50877 19.2008C7.51089 19.1494 7.51305 19.097 7.51521 19.0437C7.55829 18.0005 7.6173 16.5718 7.35449 15.7077C7.35438 15.7073 7.35428 15.707 7.35417 15.7066C7.02612 14.6108 5.14821 11.7602 3.7446 11.0424C3.42732 10.8802 3.15759 10.8358 2.94308 10.9103C2.94266 10.9104 2.94229 10.9106 2.94182 10.9108C2.81023 10.9563 2.72815 11.0124 2.67574 11.069C2.67151 11.0737 2.66729 11.0784 2.66344 11.0831C2.61768 11.1375 2.59757 11.1916 2.58648 11.2363C2.49601 11.6008 2.74837 12.4207 4.46461 14.257C4.508 14.3034 4.54484 14.3428 4.57371 14.3743C4.66608 14.4749 4.65943 14.6314 4.55878 14.7237C4.51132 14.7673 4.45136 14.7888 4.39161 14.7888C4.32474 14.7888 4.25812 14.7618 4.20935 14.7087C4.18127 14.6782 4.14543 14.6398 4.10326 14.5947C3.05108 13.4689 1.87322 12.0563 2.10642 11.1171C2.12795 11.0303 2.16654 10.9319 2.23289 10.8348C2.45231 9.66853 2.45458 7.80349 2.07338 6.76741C1.94268 6.40748 1.59685 5.94589 1.24368 5.79482C1.09398 5.73074 0.958121 5.72742 0.828221 5.78448C0.521499 5.92013 0.140087 7.04547 0.0286622 9.19517C-0.064764 10.998 0.0762196 12.7807 0.363993 13.4338C0.783936 14.3902 1.32338 14.9131 1.84504 15.4188C2.61139 16.1615 3.40288 16.9288 3.69255 18.9715C3.70057 18.9711 3.70971 18.9708 3.7181 18.9706Z" fill="#A898F6"/>
  <path d="M17.3122 5.68823C17.3122 2.55175 14.7605 0 11.624 0C8.48749 0 5.93579 2.55175 5.93579 5.68823C5.93579 8.82471 8.48749 11.3765 11.624 11.3765C14.7606 11.3765 17.3122 8.82471 17.3122 5.68823ZM13.0895 7.8298C12.8065 8.15056 12.4165 8.34554 11.907 8.42731V9.15065H11.3473V8.43364C10.9071 8.38328 10.5486 8.21353 10.2718 7.94307C9.99508 7.66628 9.81266 7.27009 9.73723 6.76691L10.7435 6.65369C10.7813 6.85495 10.8568 7.03103 10.9699 7.18199C11.0832 7.33295 11.2089 7.43989 11.3473 7.50904V5.88632C10.8504 5.74165 10.4794 5.52782 10.2466 5.23224C10.0139 4.94293 9.89442 4.58437 9.89442 4.16929C9.89442 3.74787 10.0265 3.38936 10.2907 3.10634C10.5611 2.81704 10.9071 2.65346 11.3473 2.60949V2.22581H11.907V2.60949C12.3222 2.65346 12.6492 2.79819 12.8883 3.02458C13.1335 3.2573 13.2908 3.5655 13.3536 3.95546L12.3788 4.08125C12.3159 3.77933 12.1587 3.57178 11.907 3.4649V4.97439C12.5297 5.13791 12.9511 5.35807 13.1775 5.6222C13.4039 5.89266 13.5109 6.23227 13.5109 6.65369C13.511 7.11907 13.3726 7.50904 13.0895 7.8298Z" fill="#A898F6"/>
  <path d="M11.907 6.05603V7.5718C12.102 7.52784 12.2593 7.43346 12.385 7.29506C12.5045 7.15038 12.5674 6.98058 12.5674 6.7856C12.5674 6.6158 12.5171 6.46484 12.4102 6.34539C12.3096 6.21955 12.146 6.11895 11.907 6.05603Z" fill="#A898F6"/>
  <path d="M10.9888 3.71651C10.9007 3.83601 10.8567 3.9744 10.8567 4.12536C10.8567 4.25743 10.9007 4.38954 10.9762 4.50271C11.058 4.62221 11.1837 4.71654 11.3473 4.78579V3.44604C11.1963 3.50268 11.0768 3.59072 10.9888 3.71651Z" fill="#A898F6"/>
  <path d="M20.3173 19.9841C20.2215 19.8726 19.9957 19.8055 19.647 19.786H19.6469C19.6206 19.7845 19.5928 19.7832 19.5639 19.7822C19.5524 19.7817 19.5401 19.7815 19.5282 19.7811C19.5102 19.7805 19.4922 19.78 19.4733 19.7796C19.4585 19.7793 19.4428 19.7791 19.4274 19.7788C19.4105 19.7785 19.3937 19.7783 19.3762 19.778C19.3588 19.7779 19.3407 19.7778 19.3226 19.7778C19.3061 19.7777 19.2896 19.7777 19.2727 19.7777C19.2539 19.7777 19.2346 19.7778 19.2153 19.7779C19.1988 19.7781 19.1821 19.7783 19.1653 19.7785C19.1444 19.7786 19.1233 19.7789 19.1018 19.7793C19.086 19.7795 19.0699 19.7799 19.0539 19.7802C19.0308 19.7806 19.0074 19.7811 18.9837 19.7816C18.9696 19.782 18.9552 19.7824 18.9408 19.7827C18.9144 19.7835 18.888 19.7841 18.861 19.785C18.8525 19.7853 18.8436 19.7856 18.835 19.7859C18.6918 19.7906 18.5409 19.7972 18.3852 19.8056C18.3765 19.8061 18.3678 19.8066 18.359 19.807C18.3256 19.8088 18.2919 19.8108 18.2582 19.8128C18.2467 19.8135 18.2352 19.8141 18.2237 19.8148C18.1908 19.8168 18.1577 19.8189 18.1245 19.821C18.1123 19.8219 18.1 19.8226 18.0877 19.8234C18.0542 19.8257 18.0206 19.8279 17.9868 19.8303C17.9758 19.8311 17.9647 19.8319 17.9537 19.8327C17.9186 19.8352 17.8835 19.8377 17.8483 19.8404C17.8398 19.8411 17.8314 19.8417 17.8228 19.8423C17.6587 19.8549 17.4941 19.8691 17.3324 19.8847C17.3252 19.8854 17.3179 19.886 17.3107 19.8868C17.2785 19.8899 17.2466 19.8931 17.2147 19.8964C17.2008 19.8978 17.1868 19.8992 17.1729 19.9007C17.1437 19.9037 17.1147 19.9068 17.0859 19.9099C17.0694 19.9117 17.0531 19.9134 17.0367 19.9153C17.0094 19.9183 16.9825 19.9214 16.9555 19.9245C16.938 19.9265 16.9205 19.9285 16.9031 19.9306C16.8773 19.9337 16.8514 19.9367 16.826 19.9399C16.8081 19.942 16.7904 19.9443 16.7727 19.9465C16.7479 19.9496 16.7233 19.9527 16.699 19.9559C16.6807 19.9583 16.6629 19.9607 16.645 19.9631C16.6217 19.9663 16.5983 19.9693 16.5755 19.9726C16.5562 19.9752 16.5375 19.978 16.5184 19.9807C16.4846 19.9856 16.4513 19.9906 16.4186 19.9956C16.3943 19.9993 16.3697 20.003 16.346 20.0068C16.3292 20.0096 16.3128 20.0123 16.2963 20.0152C16.2758 20.0185 16.2553 20.0219 16.2354 20.0253C16.2189 20.0282 16.2031 20.0311 16.1871 20.034C16.1681 20.0374 16.149 20.0409 16.1304 20.0443C16.1149 20.0473 16.0999 20.0503 16.0848 20.0533C16.0668 20.0567 16.0491 20.0604 16.0317 20.0639C16.0174 20.0669 16.0034 20.0698 15.9896 20.0728C15.9723 20.0765 15.9555 20.0804 15.939 20.0842C15.9264 20.0871 15.9137 20.0899 15.9016 20.0929C15.8849 20.0969 15.869 20.1009 15.8533 20.105C15.8424 20.1078 15.8314 20.1105 15.821 20.1134C15.8042 20.118 15.7885 20.1226 15.7729 20.1271C15.7649 20.1295 15.7562 20.1319 15.7485 20.1342C15.7258 20.1412 15.7044 20.1483 15.6846 20.1554C15.1853 20.3337 15.1849 20.4057 15.1844 20.4821C15.1857 20.935 15.3677 22.1701 15.5025 22.3511C15.5028 22.3515 15.5028 22.3515 15.5031 22.3519C15.564 22.4293 15.6427 22.4424 15.8703 22.4627C15.9906 22.4735 16.127 22.4857 16.2847 22.5202C16.9906 22.6752 17.7068 23.0702 18.3994 23.4523C19.1006 23.8391 19.763 24.2045 20.3356 24.2826C20.3381 24.2829 20.34 24.2831 20.3414 24.2831C20.3812 24.2499 20.4422 24.0629 20.4241 23.8026C20.4058 23.5525 20.4127 23.0915 20.4206 22.5578C20.4325 21.7415 20.4549 20.225 20.3173 19.9841ZM19.3898 21.7177C19.3119 21.9294 19.0768 22.0412 18.8651 21.9633C18.6469 21.8875 18.5373 21.648 18.6152 21.4364C18.6953 21.2203 18.9304 21.1086 19.1421 21.1864C19.3581 21.2665 19.4699 21.5016 19.3898 21.7177Z" fill="#A898F6"/>
  <path d="M22.6676 9.87999C22.5043 7.83871 22.1142 6.77977 21.8207 6.65969C21.699 6.61034 21.5726 6.6171 21.4347 6.6807C21.1049 6.83282 20.79 7.27889 20.6762 7.62225C20.3411 8.61847 20.3929 10.3916 20.6325 11.4961C20.6984 11.5876 20.7379 11.681 20.761 11.7637C21.0099 12.658 19.9229 14.0393 18.9481 15.1427C18.9092 15.1869 18.8761 15.2243 18.8501 15.2542C18.8012 15.3106 18.7324 15.3395 18.6633 15.3395C18.6058 15.3395 18.548 15.3196 18.5013 15.279C18.3981 15.1895 18.387 15.0333 18.4766 14.9301C18.5033 14.8994 18.5373 14.8608 18.5774 14.8153C20.1609 13.0228 20.3797 12.2386 20.2844 11.8964C20.2727 11.854 20.2519 11.8026 20.2049 11.7519C20.2029 11.7497 20.2009 11.7475 20.1988 11.7453C20.1487 11.6936 20.0703 11.6431 19.9451 11.6036C19.8866 11.5851 19.8243 11.5759 19.7582 11.5759C19.5922 11.5759 19.4029 11.6341 19.1919 11.7496C17.8754 12.4701 16.1645 15.2334 15.8815 16.2852C15.8814 16.2855 15.8813 16.2859 15.8812 16.2862C15.6543 17.115 15.7487 18.4742 15.8176 19.4667C15.8209 19.5129 15.8239 19.5583 15.8271 19.603C15.8372 19.6006 15.8481 19.5984 15.8585 19.5961C15.8731 19.5929 15.8877 19.5897 15.9027 19.5865C15.9234 19.5821 15.9446 19.5778 15.9659 19.5736C15.9795 19.5709 15.9925 19.5681 16.0065 19.5655C16.0403 19.5589 16.075 19.5525 16.1106 19.5462C16.1251 19.5436 16.1403 19.5411 16.1552 19.5385C16.1791 19.5343 16.2031 19.5302 16.2277 19.5262C16.2437 19.5236 16.2599 19.5209 16.2762 19.5184C16.3016 19.5143 16.3274 19.5103 16.3536 19.5063C16.3683 19.5041 16.383 19.5018 16.3979 19.4996C16.4312 19.4947 16.4649 19.4899 16.499 19.4851C16.5071 19.4839 16.515 19.4828 16.5231 19.4817C16.6141 19.4692 16.708 19.4571 16.804 19.4456C16.8072 19.4452 16.8104 19.4448 16.8137 19.4445C16.861 19.4389 16.9087 19.4333 16.9569 19.4279C16.9574 19.4279 16.9577 19.4278 16.958 19.4278C17.7627 19.3383 18.6804 19.2866 19.2821 19.2844C19.2914 19.2843 19.3003 19.2843 19.3095 19.2843C19.3322 19.2843 19.3546 19.2843 19.3764 19.2844C19.392 19.2845 19.4073 19.2846 19.4224 19.2848C19.4276 19.2848 19.433 19.2848 19.4381 19.2849C19.6614 17.3337 20.3954 16.5811 21.1061 15.8524C21.5891 15.3572 22.0886 14.8452 22.4623 13.9245C22.7185 13.2953 22.8049 11.5945 22.6676 9.87999Z" fill="#A898F6"/>
</svg>