<svg xmlns="http://www.w3.org/2000/svg" width="25" height="25" viewBox="0 0 25 25" fill="none">
  <path d="M6.94557 1.02271C6.94557 0.457866 6.48807 0.000366211 5.92322 0.000366211H1.02235C0.4575 0.000366211 0 0.457866 0 1.02271V5.92295C0 6.48779 0.4575 6.94529 1.02235 6.94529H5.92258C6.48743 6.94529 6.94493 6.48779 6.94493 5.92295V1.02271H6.94557ZM4.90087 4.9006H2.04469V2.04506H4.90023V4.9006H4.90087Z" fill="#5ACCF9"/>
  <path d="M9.70081 6.94493H14.601C15.1659 6.94493 15.6234 6.48743 15.6234 5.92258V1.02235C15.6234 0.4575 15.1659 0 14.601 0H9.70081C9.13597 0 8.67847 0.4575 8.67847 1.02235V5.92258C8.67847 6.48679 9.13597 6.94493 9.70081 6.94493ZM10.7232 2.04469H13.5787V4.90023H10.7232V2.04469Z" fill="#5ACCF9"/>
  <path d="M18.3779 6.94493H23.2782C23.843 6.94493 24.3005 6.48743 24.3005 5.92258V1.02235C24.3005 0.4575 23.843 0 23.2782 0H18.3779C17.8131 0 17.3556 0.4575 17.3556 1.02235V5.92258C17.3556 6.48679 17.8137 6.94493 18.3779 6.94493ZM19.4003 2.04469H22.2558V4.90023H19.4003V2.04469Z" fill="#5ACCF9"/>
  <path d="M6.94557 9.69965C6.94557 9.13481 6.48807 8.67731 5.92322 8.67731H1.02235C0.4575 8.67731 0 9.13481 0 9.69965V14.5999C0 15.1647 0.4575 15.6222 1.02235 15.6222H5.92258C6.48743 15.6222 6.94493 15.1647 6.94493 14.5999V9.69965H6.94557ZM4.90087 13.5782H2.04469V10.7226H4.90023V13.5782H4.90087Z" fill="#5ACCF9"/>
  <path d="M8.67847 14.6003C8.67847 15.1652 9.13597 15.6227 9.70081 15.6227H14.601C15.1659 15.6227 15.6234 15.1652 15.6234 14.6003V9.70008C15.6234 9.13523 15.1659 8.67773 14.601 8.67773H9.70081C9.13597 8.67773 8.67847 9.13523 8.67847 9.70008V14.6003ZM10.7232 10.7218H13.5787V13.5773H10.7232V10.7218Z" fill="#5ACCF9"/>
  <path d="M17.3556 14.6003C17.3556 15.1652 17.8131 15.6227 18.3779 15.6227H23.2782C23.843 15.6227 24.3005 15.1652 24.3005 14.6003V9.70008C24.3005 9.13523 23.843 8.67773 23.2782 8.67773H18.3779C17.8131 8.67773 17.3556 9.13523 17.3556 9.70008V14.6003ZM19.4003 10.7218H22.2558V13.5773H19.4003V10.7218Z" fill="#5ACCF9"/>
  <path d="M5.92322 17.355H1.02235C0.4575 17.355 0 17.8125 0 18.3774V23.2776C0 23.8425 0.4575 24.3 1.02235 24.3H5.92258C6.48743 24.3 6.94493 23.8425 6.94493 23.2776V18.3774C6.94557 17.8132 6.48743 17.355 5.92322 17.355ZM4.90087 22.2553H2.04469V19.3997H4.90023V22.2553H4.90087Z" fill="#5ACCF9"/>
  <path d="M8.67847 23.2776C8.67847 23.8425 9.13597 24.3 9.70081 24.3H14.601C15.1659 24.3 15.6234 23.8425 15.6234 23.2776V18.3774C15.6234 17.8125 15.1659 17.355 14.601 17.355H9.70081C9.13597 17.355 8.67847 17.8125 8.67847 18.3774V23.2776ZM10.7232 19.3997H13.5787V22.2553H10.7232V19.3997Z" fill="#5ACCF9"/>
  <path d="M17.3556 23.2776C17.3556 23.8425 17.8131 24.3 18.3779 24.3H23.2782C23.843 24.3 24.3005 23.8425 24.3005 23.2776V18.3774C24.3005 17.8125 23.843 17.355 23.2782 17.355H18.3779C17.8131 17.355 17.3556 17.8125 17.3556 18.3774V23.2776ZM19.4003 19.3997H22.2558V22.2553H19.4003V19.3997Z" fill="#5ACCF9"/>
</svg>