<svg xmlns="http://www.w3.org/2000/svg" width="63" height="63" viewBox="0 0 63 63" fill="none">
  <rect width="63" height="63" rx="10" fill="#202244"/>
  <path fill-rule="evenodd" clip-rule="evenodd" d="M35.9554 18.5155C33.0249 17.8281 29.9751 17.8282 27.0446 18.5155C22.8126 19.5082 19.5082 22.8126 18.5155 27.0446C17.8281 29.9751 17.8282 33.0249 18.5156 35.9554C19.5082 40.1874 22.8126 43.4918 27.0446 44.4845C29.9751 45.1719 33.0249 45.1719 35.9554 44.4845C40.1874 43.4918 43.4918 40.1874 44.4845 35.9554C45.1719 33.0249 45.1719 29.9751 44.4845 27.0446C43.4918 22.8126 40.1874 19.5082 35.9554 18.5155ZM27.4857 30.4885C27.2514 30.2542 27.2514 29.8743 27.4857 29.64L31.0755 26.0502C31.188 25.9377 31.3406 25.8745 31.4998 25.8745C31.6589 25.8745 31.8115 25.9377 31.924 26.0502L35.5139 29.64C35.7482 29.8743 35.7482 30.2542 35.5139 30.4885C35.2795 30.7229 34.8996 30.7229 34.6653 30.4885L32.0998 27.923L32.0998 36.526C32.0998 36.8573 31.8311 37.126 31.4998 37.126C31.1684 37.126 30.8998 36.8573 30.8998 36.526L30.8998 27.923L28.3342 30.4885C28.0999 30.7229 27.72 30.7229 27.4857 30.4885Z" fill="#A898F6"/>
</svg>