<svg xmlns="http://www.w3.org/2000/svg" width="63" height="63" viewBox="0 0 63 63" fill="none">
  <rect width="63" height="63" rx="10" fill="#202244"/>
  <path fill-rule="evenodd" clip-rule="evenodd" d="M35.9554 44.4845C33.0249 45.1719 29.9751 45.1719 27.0446 44.4845C22.8126 43.4918 19.5082 40.1874 18.5155 35.9554C17.8282 33.0249 17.8281 29.9751 18.5155 27.0447C19.5082 22.8126 22.8126 19.5082 27.0447 18.5155C29.9751 17.8282 33.0249 17.8282 35.9554 18.5155C40.1874 19.5082 43.4918 22.8126 44.4845 27.0446C45.1719 29.9751 45.1719 33.0249 44.4845 35.9554C43.4918 40.1874 40.1874 43.4918 35.9554 44.4845ZM35.5141 33.3601C35.7484 33.1258 35.7484 32.7459 35.5141 32.5116C35.2798 32.2773 34.8999 32.2773 34.6656 32.5116L32.1 35.0772L32.1 26.4741C32.1 26.1428 31.8314 25.8741 31.5 25.8741C31.1687 25.8741 30.9 26.1428 30.9 26.4741L30.9 35.0772L28.3345 32.5116C28.1001 32.2773 27.7202 32.2773 27.4859 32.5116C27.2516 32.7459 27.2516 33.1258 27.4859 33.3601L31.0758 36.9499C31.1883 37.0625 31.3409 37.1257 31.5 37.1257C31.6592 37.1257 31.8118 37.0625 31.9243 36.9499L35.5141 33.3601Z" fill="#5ACCF9"/>
</svg>