<svg xmlns="http://www.w3.org/2000/svg" width="20" height="25" viewBox="0 0 20 25" fill="none">
  <path d="M10.3528 0.670236L9.5748 0L8.79685 0.670236C8.37795 0.981417 0 8.2822 0 14.7452C0 17.2846 1.00877 19.72 2.8044 21.5156C4.60002 23.3112 7.03541 24.32 9.5748 24.32C12.1142 24.32 14.5496 23.3112 16.3452 21.5156C18.1408 19.72 19.1496 17.2846 19.1496 14.7452C19.1496 8.2822 10.7717 0.981417 10.3528 0.670236ZM12.2438 20.0951L11.1786 17.9528C11.7748 17.6551 12.2764 17.1975 12.6272 16.631C12.9781 16.0645 13.1644 15.4115 13.1654 14.7452H15.5591C15.5579 15.8569 15.2471 16.9463 14.6616 17.8912C14.076 18.8362 13.2388 19.5993 12.2438 20.0951Z" fill="#5ACCF9"/>
</svg>